name Walk9.mot
datacolumns 19
datarows 20
range 2.88700000 2.90600000
endheader

                time	   L_ground_force_vx	   L_ground_force_vy	   L_ground_force_vz	   L_ground_force_px	   L_ground_force_py	   L_ground_force_pz	   R_ground_force_vx	   R_ground_force_vy	   R_ground_force_vz	   R_ground_force_px	   R_ground_force_py	   R_ground_force_pz	   L_ground_torque_x	   L_ground_torque_y	   L_ground_torque_z	   R_ground_torque_x	   R_ground_torque_y	   R_ground_torque_z	
          2.88700000	        -37.79717764	        706.67567001	        -40.37138736	          0.13092199	          0.00000000	          0.06394840	          0.00000000	          0.00000000	          0.00000000	          0.00000000	          0.00000000	          0.00000000	          0.00000000	          2.67526986	          0.00000000	          0.00000000	          0.00000000	          0.00000000	
          2.88800000	        -37.29548464	        705.12309449	        -40.35232931	          0.13111705	          0.00000000	          0.06395295	          0.00000000	          0.00000000	          0.00000000	          0.00000000	          0.00000000	          0.00000000	          0.00000000	          2.63741619	          0.00000000	          0.00000000	          0.00000000	          0.00000000	
          2.88900000	        -36.80305656	        703.59704697	        -40.33455845	          0.13130843	          0.00000000	          0.06399806	          0.00000000	          0.00000000	          0.00000000	          0.00000000	          0.00000000	          0.00000000	          0.00000000	          2.59948788	          0.00000000	          0.00000000	          0.00000000	          0.00000000	
          2.89000000	        -36.31522640	        702.06941561	        -40.31295915	          0.13144204	          0.00000000	          0.06407027	          0.00000000	          0.00000000	          0.00000000	          0.00000000	          0.00000000	          0.00000000	          0.00000000	          2.56330258	          0.00000000	          0.00000000	          0.00000000	          0.00000000	
          2.89100000	        -35.81956327	        700.50139030	        -40.29082271	          0.13149622	          0.00000000	          0.06413906	          0.00000000	          0.00000000	          0.00000000	          0.00000000	          0.00000000	          0.00000000	          0.00000000	          2.53453938	          0.00000000	          0.00000000	          0.00000000	          0.00000000	
          2.89200000	        -35.30530600	        698.88449616	        -40.27376829	          0.13151493	          0.00000000	          0.06417575	          0.00000000	          0.00000000	          0.00000000	          0.00000000	          0.00000000	          0.00000000	          0.00000000	          2.51444589	          0.00000000	          0.00000000	          0.00000000	          0.00000000	
          2.89300000	        -34.77723031	        697.21897000	        -40.26583863	          0.13154677	          0.00000000	          0.06416152	          0.00000000	          0.00000000	          0.00000000	          0.00000000	          0.00000000	          0.00000000	          0.00000000	          2.49626627	          0.00000000	          0.00000000	          0.00000000	          0.00000000	
          2.89400000	        -34.25588561	        695.50259767	        -40.27306549	          0.13159174	          0.00000000	          0.06409316	          0.00000000	          0.00000000	          0.00000000	          0.00000000	          0.00000000	          0.00000000	          0.00000000	          2.47322397	          0.00000000	          0.00000000	          0.00000000	          0.00000000	
          2.89500000	        -33.75968172	        693.75623304	        -40.30250817	          0.13162575	          0.00000000	          0.06399146	          0.00000000	          0.00000000	          0.00000000	          0.00000000	          0.00000000	          0.00000000	          0.00000000	          2.44784576	          0.00000000	          0.00000000	          0.00000000	          0.00000000	
          2.89600000	        -33.28963344	        692.01529574	        -40.35487199	          0.13164365	          0.00000000	          0.06389210	          0.00000000	          0.00000000	          0.00000000	          0.00000000	          0.00000000	          0.00000000	          0.00000000	          2.42880178	          0.00000000	          0.00000000	          0.00000000	          0.00000000	
          2.89700000	        -32.83405780	        690.30174558	        -40.42199580	          0.13166477	          0.00000000	          0.06382523	          0.00000000	          0.00000000	          0.00000000	          0.00000000	          0.00000000	          0.00000000	          0.00000000	          2.42070028	          0.00000000	          0.00000000	          0.00000000	          0.00000000	
          2.89800000	        -32.38394678	        688.61894258	        -40.49479026	          0.13171343	          0.00000000	          0.06380640	          0.00000000	          0.00000000	          0.00000000	          0.00000000	          0.00000000	          0.00000000	          0.00000000	          2.42050131	          0.00000000	          0.00000000	          0.00000000	          0.00000000	
          2.89900000	        -31.94052410	        686.95638631	        -40.56956902	          0.13180053	          0.00000000	          0.06383441	          0.00000000	          0.00000000	          0.00000000	          0.00000000	          0.00000000	          0.00000000	          0.00000000	          2.42064285	          0.00000000	          0.00000000	          0.00000000	          0.00000000	
          2.90000000	        -31.50768133	        685.29461099	        -40.64193418	          0.13191880	          0.00000000	          0.06388618	          0.00000000	          0.00000000	          0.00000000	          0.00000000	          0.00000000	          0.00000000	          0.00000000	          2.41304597	          0.00000000	          0.00000000	          0.00000000	          0.00000000	
          2.90100000	        -31.07980001	        683.61078748	        -40.70585904	          0.13205344	          0.00000000	          0.06391730	          0.00000000	          0.00000000	          0.00000000	          0.00000000	          0.00000000	          0.00000000	          0.00000000	          2.39417600	          0.00000000	          0.00000000	          0.00000000	          0.00000000	
          2.90200000	        -30.63860141	        681.89058671	        -40.76750865	          0.13219070	          0.00000000	          0.06388145	          0.00000000	          0.00000000	          0.00000000	          0.00000000	          0.00000000	          0.00000000	          0.00000000	          2.37119751	          0.00000000	          0.00000000	          0.00000000	          0.00000000	
          2.90300000	        -30.16486326	        680.14666790	        -40.84576239	          0.13232255	          0.00000000	          0.06376477	          0.00000000	          0.00000000	          0.00000000	          0.00000000	          0.00000000	          0.00000000	          0.00000000	          2.35956291	          0.00000000	          0.00000000	          0.00000000	          0.00000000	
          2.90400000	        -29.65896703	        678.41854196	        -40.95144958	          0.13244947	          0.00000000	          0.06360323	          0.00000000	          0.00000000	          0.00000000	          0.00000000	          0.00000000	          0.00000000	          0.00000000	          2.36752944	          0.00000000	          0.00000000	          0.00000000	          0.00000000	
          2.90500000	        -29.14808759	        676.75159171	        -41.07716393	          0.13257668	          0.00000000	          0.06346027	          0.00000000	          0.00000000	          0.00000000	          0.00000000	          0.00000000	          0.00000000	          0.00000000	          2.38487844	          0.00000000	          0.00000000	          0.00000000	          0.00000000	
          2.90600000	        -28.66926887	        675.18411925	        -41.20852824	          0.13271866	          0.00000000	          0.06338833	          0.00000000	          0.00000000	          0.00000000	          0.00000000	          0.00000000	          0.00000000	          0.00000000	          2.39156901	          0.00000000	          0.00000000	          0.00000000	          0.00000000	
